<svg xmlns="http://www.w3.org/2000/svg" xmlns:xlink="http://www.w3.org/1999/xlink" viewBox="0 0 432 185">
  <defs>
    <style>
      .cls-1 {
        clip-path: url(#clip-Artboard_1);
      }

      .cls-2 {
        fill: #fff;
      }

      .cls-3 {
        fill: url(#linear-gradient);
      }

      .cls-4 {
        fill: url(#radial-gradient);
      }

      .cls-5 {
        fill: url(#linear-gradient-2);
      }

      .cls-6 {
        fill: url(#radial-gradient-2);
      }

      .cls-7 {
        fill: url(#radial-gradient-3);
      }

      .cls-8 {
        fill: url(#linear-gradient-3);
      }

      .cls-9 {
        fill: url(#linear-gradient-4);
      }

      .cls-10 {
        fill: url(#radial-gradient-4);
      }

      .cls-11 {
        fill: url(#radial-gradient-5);
      }

      .cls-12 {
        fill: url(#linear-gradient-5);
      }

      .cls-13 {
        fill: url(#linear-gradient-6);
      }
    </style>
    <linearGradient id="linear-gradient" x1="0.542" y1="0.863" x2="0.82" y2="-0.034" gradientUnits="objectBoundingBox">
      <stop offset="0" stop-color="#ff36d4"/>
      <stop offset="0.162" stop-color="#fe47bd"/>
      <stop offset="0.502" stop-color="#fd7482"/>
      <stop offset="0.989" stop-color="#fcbc24"/>
      <stop offset="1" stop-color="#fcbe22"/>
    </linearGradient>
    <radialGradient id="radial-gradient" cx="218.816" cy="0.494" r="203.539" gradientTransform="matrix(0.411, -0.18, 0.029, 0.068, -55.26, -317.505)" gradientUnits="userSpaceOnUse">
      <stop offset="0"/>
      <stop offset="0.203" stop-color="#3d3d3d"/>
      <stop offset="0.494" stop-color="#8f8f8f"/>
      <stop offset="0.733" stop-color="#cbcbcb"/>
      <stop offset="0.908" stop-color="#f0f0f0"/>
      <stop offset="1" stop-color="#fff"/>
    </radialGradient>
    <linearGradient id="linear-gradient-2" x1="0.382" y1="0.769" x2="1.629" y2="-0.215" gradientUnits="objectBoundingBox">
      <stop offset="0" stop-color="#fff" stop-opacity="0"/>
      <stop offset="0.281" stop-color="#fff" stop-opacity="0.31"/>
      <stop offset="0.634" stop-color="#fff" stop-opacity="0.678"/>
      <stop offset="0.882" stop-color="#fff" stop-opacity="0.91"/>
      <stop offset="1" stop-color="#fff"/>
    </linearGradient>
    <radialGradient id="radial-gradient-2" cx="99.021" cy="16.512" r="333.01" gradientTransform="matrix(0.234, -0.016, 0.005, 0.078, 17.432, -210.2)" xlink:href="#radial-gradient"/>
    <radialGradient id="radial-gradient-3" cx="58.189" cy="63.439" r="92.37" gradientTransform="matrix(0.734, -0.424, 0.12, 0.208, 28.335, -134.304)" xlink:href="#radial-gradient"/>
    <linearGradient id="linear-gradient-3" x1="0.901" y1="1.759" x2="0.347" y2="0.017" gradientUnits="objectBoundingBox">
      <stop offset="0" stop-color="#0976cd"/>
      <stop offset="0.035" stop-color="#0974cc"/>
      <stop offset="1" stop-color="aqua"/>
    </linearGradient>
    <linearGradient id="linear-gradient-4" x1="0.108" y1="1.403" x2="0.717" y2="-0.758" gradientUnits="objectBoundingBox">
      <stop offset="0" stop-color="#0976cd"/>
      <stop offset="0.371" stop-color="#05ade1"/>
      <stop offset="0.796" stop-color="#01e8f6"/>
      <stop offset="1" stop-color="aqua"/>
    </linearGradient>
    <radialGradient id="radial-gradient-4" cx="162.354" cy="70.617" r="167.042" gradientTransform="matrix(0.354, -0.191, 0.092, 0.171, 2.237, -268.792)" xlink:href="#radial-gradient"/>
    <radialGradient id="radial-gradient-5" cx="189.943" cy="38.593" r="232.161" gradientTransform="matrix(0.332, -0.056, 0.015, 0.086, -79.481, -308.035)" xlink:href="#radial-gradient"/>
    <linearGradient id="linear-gradient-5" x1="-0.152" y1="0.5" x2="1" y2="0.5" gradientUnits="objectBoundingBox">
      <stop offset="0" stop-color="#fcbe22"/>
      <stop offset="0.011" stop-color="#fcbc24"/>
      <stop offset="0.498" stop-color="#fd7482"/>
      <stop offset="0.838" stop-color="#fe47bd"/>
      <stop offset="1" stop-color="#ff36d4"/>
    </linearGradient>
    <linearGradient id="linear-gradient-6" x1="-0.222" y1="0.5" x2="0.42" y2="0.5" gradientUnits="objectBoundingBox">
      <stop offset="0" stop-color="#fff"/>
      <stop offset="1" stop-color="#fff" stop-opacity="0"/>
    </linearGradient>
    <clipPath id="clip-Artboard_1">
      <rect width="432" height="185"/>
    </clipPath>
  </defs>
  <g id="Artboard_1" data-name="Artboard 1" class="cls-1">
    <rect class="cls-2" width="432" height="185"/>
    <g id="OBJECTS">
      <g id="Group_47" data-name="Group 47">
        <g id="Group_46" data-name="Group 46" transform="translate(-33 -250)">
          <g id="Group_31" data-name="Group 31">
            <g id="Group_30" data-name="Group 30">
              <g id="Group_29" data-name="Group 29">
                <g id="Group_28" data-name="Group 28">
                  <rect id="Rectangle_12" data-name="Rectangle 12" class="cls-2" width="431.46" height="187.81" transform="translate(33.4 249.57)"/>
                </g>
              </g>
            </g>
          </g>
          <g id="Group_45" data-name="Group 45">
            <g id="Group_32" data-name="Group 32">
              <path id="Path_24" data-name="Path 24" class="cls-3" d="M464.86,437.38V249.57H393.7v34.412a73.19,73.19,0,0,1-21.785,52.1L269.26,437.38Z"/>
              <path id="Path_25" data-name="Path 25" class="cls-4" d="M464.86,325.414c-17.216,4.131-41.262,12.572-67.151,24.03-27.953,12.372-51.871,25.521-66.3,35.889h60.7c5.885-2.368,11.938-4.92,18.1-7.646,21.4-9.47,40.428-19.4,54.651-28.182Z"/>
              <path id="Path_26" data-name="Path 26" class="cls-5" d="M327.667,381.667s73.671-6.955,137.193-29.74V249.57h-36.8C426.126,298.77,407.285,362.152,327.667,381.667Z"/>
              <path id="Path_27" data-name="Path 27" class="cls-6" d="M92.115,249.57c-8.444,4.759-13.227,10.162-12.858,15.618.964,14.265,36.7,23.467,79.831,20.553s77.3-16.842,76.34-31.107a9.818,9.818,0,0,0-1.916-5.064Z"/>
              <path id="Path_28" data-name="Path 28" class="cls-7" d="M53.17,249.57c-6.335,2.66-12.978,5.8-19.77,9.4v50.539c4.388-2.218,8.851-4.625,13.347-7.221,31.929-18.434,55.07-40.142,57.388-52.716Z"/>
              <path id="Path_29" data-name="Path 29" class="cls-8" d="M464.86,437.266l-.039-119.6c-5.709,4.889-81.821,76-226.911,71.781C150.992,386.921,104.488,413.965,89,437.38Z"/>
              <path id="Path_30" data-name="Path 30" class="cls-9" d="M33.4,249.57v56.1c28.768-32.026,37.814-29.882,114.9-25.785,51.031,2.712,73.919-14.909,84.154-30.312Z"/>
              <path id="Path_31" data-name="Path 31" class="cls-10" d="M305.51,437.38c11.261-12.8,15.923-25.892,10.953-35.13-8.494-15.788-41.872-14.334-74.551,3.247-16.838,9.059-30.19,20.632-38.031,31.883Z"/>
              <path id="Path_32" data-name="Path 32" class="cls-11" d="M461.5,376.2c-14.53-3.418-39.592-3.1-67.464,1.626-42.616,7.22-75.653,21.99-73.79,32.99s37.922,14.062,80.539,6.842c25.459-4.313,47.492-11.321,60.715-18.61Z"/>
              <path id="Path_33" data-name="Path 33" class="cls-12" d="M336.375,393.515C265.247,394.689,225.75,415.5,219,437.38H464.86V361C439.439,376.2,398,392.5,336.375,393.515Z"/>
              <path id="Path_34" data-name="Path 34" class="cls-13" d="M464.86,437.38V406H218.5c-34.622,2.985-51.425,18.974-59.348,31.38Z"/>
            </g>
          </g>
        </g>
      </g>
    </g>
  </g>
</svg>
